<svg width="370.49755859375px" height="142.91000366210938px" xmlns="http://www.w3.org/2000/svg" viewBox="64.751220703125 3.5449981689453125 370.49755859375 142.91000366210938" style="background: none;" preserveAspectRatio="xMidYMid"><defs><filter id="editing-golden" x="-100%" y="-100%" width="300%" height="300%"><feFlood flood-color="#00d8ff" result="flood"></feFlood><feFlood flood-color="#222222" result="flood-light"></feFlood><feComposite operator="in" in="flood" in2="SourceAlpha" result="flood-comp"></feComposite><feGaussianBlur in="flood-comp" stdDeviation="3" result="blur"></feGaussianBlur><feOffset in="blur" dy="3" result="offset-blur"></feOffset><feComponentTransfer in="offset-blur" result="comp-blur"><feFuncA type="linear" slope="0.7" intercept="-0.1"></feFuncA></feComponentTransfer><feSpecularLighting surfaceScale="200" specularConstant="20" specularExponent="1" lighting-color="#fff" in="blur" result="specular"><fePointLight x="-250" y="-250" z="3500"></fePointLight></feSpecularLighting><feComponentTransfer in="specular" result="inspecular"><feFuncA type="linear" slope="-1" intercept="1"></feFuncA></feComponentTransfer><feComposite operator="in" in="flood-light" in2="inspecular" result="inspecular2"></feComposite><feComposite operator="in" in="inspecular2" in2="SourceAlpha" result="light"></feComposite><feMerge><feMergeNode in="comp-blur"></feMergeNode><feMergeNode in="SourceGraphic"></feMergeNode><feMergeNode in="light"></feMergeNode></feMerge></filter></defs><g filter="url(#editing-golden)"><g transform="translate(123.26572942733765, 105.41499900817871)"><path d="M-1.04-2.43L12.50-55.47L12.50-55.47Q12.96-57.13 14.77-57.21L14.77-57.21L17.32-57.21L17.32-57.21Q18.98-57.21 19.21-55.39L19.21-55.39L19.21-55.39Q20.64-40.54 20.79-34.06L20.79-34.06L20.79-34.06Q20.95-27.58 20.56-21.95L20.56-21.95L40.77-55.70L40.77-55.70Q41.62-57.21 43.13-57.21L43.13-57.21L45.59-57.21L45.59-57.21Q46.60-57.21 47.00-56.45L47.00-56.45L47.00-56.45Q47.41-55.70 47.18-54.74L47.18-54.74L33.68-1.74L33.68-1.74Q33.17 0 31.28 0L31.28 0L29.01 0L29.01 0Q28.04 0 27.62-0.71L27.62-0.71L27.62-0.71Q27.19-1.43 27.43-2.43L27.43-2.43L36.49-38.00L36.49-38.00Q33.17-32.25 28.60-25.09L28.60-25.09L28.60-25.09Q24.03-17.94 22.60-15.66L22.60-15.66L22.60-15.66Q20.64-12.42 18.63-12.58L18.63-12.58L17.05-12.65L17.05-12.65Q14.85-12.81 15.08-15.82L15.08-15.82L15.08-15.82Q15.66-24.42 14.70-38.81L14.70-38.81L5.21-1.74L5.21-1.74Q4.74 0 2.85 0L2.85 0L0.54 0L0.54 0Q-0.39 0-0.83-0.71L-0.83-0.71L-0.83-0.71Q-1.27-1.43-1.04-2.43L-1.04-2.43ZM43.86-3.93L56.13-52.08L52.00-51.57L52.00-51.57Q50.49-51.57 50.76-53.39L50.76-53.39L51.07-55.62L51.07-55.62Q51.30-56.82 52.42-57.13L52.42-57.13L52.42-57.13Q55.55-57.82 62.51-57.71L62.51-57.71L62.51-57.71Q69.47-57.59 73.66-53.33L73.66-53.33L73.66-53.33Q77.84-49.07 78.15-40.81L78.15-40.81L78.15-40.81Q78.46-32.56 75.47-22.64L75.47-22.64L75.47-22.64Q72.48-12.73 67.06-6.25L67.06-6.25L67.06-6.25Q61.64 0.23 52.96 0.31L52.96 0.31L52.96 0.31Q48.68 0.31 45.85-0.12L45.85-0.12L45.85-0.12Q43.01-0.54 43.86-3.93L43.86-3.93ZM62.61-52.23L62.61-52.23L50.57-5.28L50.57-5.28Q51.30-5.21 54.24-5.21L54.24-5.21L54.24-5.21Q59.21-5.21 63.40-10.94L63.40-10.94L63.40-10.94Q67.58-16.66 69.82-24.92L69.82-24.92L69.82-24.92Q72.06-33.17 72.19-38.90L72.19-38.90L72.19-38.90Q72.33-44.63 70.07-48.39L70.07-48.39L70.07-48.39Q67.81-52.15 62.61-52.23ZM91.73-54.89L88.49-6.87L112.44-55.55L112.44-55.55Q113.29-57.36 115.45-57.13L115.45-57.13L117.19-56.97L117.19-56.97Q119.77-56.70 118.85-53.97L118.85-53.97L92.46-3.16L92.46-3.16Q91.04-0.15 87.72 0L87.72 0L85.25 0.08L85.25 0.08Q83.67 0.15 82.80-1.06L82.80-1.06L82.80-1.06Q81.93-2.28 82.09-4.28L82.09-4.28L84.86-55.32L84.86-55.32Q85.09-57.05 87.25-57.05L87.25-57.05L89.92-57.05L89.92-57.05Q91.96-57.05 91.73-54.89L91.73-54.89ZM126.06-52.15L126.06-52.15L126.79-52.15L126.79-52.15Q128.10-52.15 129.22-50.96L129.22-50.96L129.22-50.96Q130.34-49.76 130.34-48.22L130.34-48.22L130.34-48.22Q130.34-46.67 129.19-45.58L129.19-45.58L129.19-45.58Q128.03-44.48 126.29-44.48L126.29-44.48L125.67-44.48L125.67-44.48Q124.32-44.48 123.26-45.61L123.26-45.61L123.26-45.61Q122.20-46.75 122.20-48.29L122.20-48.29L122.20-48.29Q122.20-49.84 123.30-51.00L123.30-51.00L123.30-51.00Q124.40-52.15 126.06-52.15ZM127.49-38.46L127.49-38.46L117.92-1.74L117.92-1.74Q117.46 0 115.57 0L115.57 0L113.25 0L113.25 0Q111.06 0 111.52-1.81L111.52-1.81L121.16-38.54L121.16-38.54Q121.55-40.12 123.36-40.12L123.36-40.12L125.98-40.12L125.98-40.12Q127.02-40.12 127.37-39.77L127.37-39.77L127.37-39.77Q127.72-39.42 127.49-38.46ZM143.11-40.62L143.11-40.62L144.31-40.62L144.31-40.62Q147.01-40.62 149.28-38.55L149.28-38.55L149.28-38.55Q151.56-36.49 152.99-33.48L152.99-33.48L152.99-33.48Q153.80-31.82 152.45-30.98L152.45-30.98L150.05-29.63L150.05-29.63Q148.40-28.43 147.70-30.01L147.70-30.01L147.70-30.01Q147.62-30.17 147.06-31.48L147.06-31.48L147.06-31.48Q146.50-32.79 146.16-33.35L146.16-33.35L146.16-33.35Q145.81-33.91 144.94-34.60L144.94-34.60L144.94-34.60Q144.07-35.30 142.96-35.49L142.96-35.49L142.96-35.49Q140.99-35.06 139.25-32.87L139.25-32.87L139.25-32.87Q137.52-30.67 137.52-26.62L137.52-26.62L137.52-26.62Q137.52-24.88 138.35-24.21L138.35-24.21L138.35-24.21Q139.18-23.53 141.30-23.07L141.30-23.07L143.50-22.60L143.50-22.60Q148.32-21.56 148.32-14.62L148.32-14.62L148.32-14.62Q148.32-10.49 145.23-5.13L145.23-5.13L145.23-5.13Q143.77-2.62 141.22-0.87L141.22-0.87L141.22-0.87Q138.67 0.89 135.70 0.89L135.70 0.89L135.13 0.89L135.13 0.89Q132.12 0.89 129.76-1.22L129.76-1.22L129.76-1.22Q127.41-3.32 126.45-5.50L126.45-5.50L126.45-5.50Q125.48-7.68 126.45-8.76L126.45-8.76L128.18-10.18L128.18-10.18Q128.99-10.99 129.94-10.92L129.94-10.92L129.94-10.92Q130.88-10.84 131.23-9.53L131.23-9.53L131.23-9.53Q131.58-8.22 133.16-6.36L133.16-6.36L133.16-6.36Q134.74-4.51 136.09-4.44L136.09-4.44L136.09-4.44Q138.44-4.82 140.18-7.23L140.18-7.23L140.18-7.23Q141.91-9.64 141.91-12.77L141.91-12.77L141.91-12.77Q141.91-15.89 141.34-16.76L141.34-16.76L141.34-16.76Q140.76-17.63 138.67-18.09L138.67-18.09L136.94-18.48L136.94-18.48Q133.89-19.21 132.62-21.02L132.62-21.02L132.62-21.02Q131.35-22.84 131.35-25.92L131.35-25.92L131.35-25.92Q131.35-31.05 135.01-35.84L135.01-35.84L135.01-35.84Q138.67-40.62 143.11-40.62ZM169.15-2.28L174.63-20.71L167.41-8.60L167.41-8.60Q164.90-4.28 162.30-2.14L162.30-2.14L162.30-2.14Q159.70 0 157.73 0L157.73 0L157.23 0L157.23 0Q154.80 0 153.41-2.68L153.41-2.68L153.41-2.68Q152.02-5.36 153.22-9.64L153.22-9.64L161.28-39.04L161.28-39.04Q161.51-40.12 162.51-40.12L162.51-40.12L166.64-40.12L166.64-40.12Q167.84-40.12 167.26-38.23L167.26-38.23L159.27-10.84L159.27-10.84Q158.73-8.37 159.12-7.68L159.12-7.68L159.12-7.68Q160.01-6.40 163.09-11.07L163.09-11.07L163.09-11.07Q166.18-15.74 179.02-39.04L179.02-39.04L179.02-39.04Q179.68-40.12 180.95-40.12L180.95-40.12L183.92-40.12L183.92-40.12Q184.42-40.12 184.73-39.50L184.73-39.50L184.73-39.50Q185.04-38.88 184.81-38.07L184.81-38.07L175.24-2.04L175.24-2.04Q174.86 0 173.66 0L173.66 0L170.42 0L170.42 0Q168.53 0 169.15-2.28L169.15-2.28ZM208.22-38.54L208.22-38.54L208.22-38.54Q208.53-40.39 210.04-40.39L210.04-40.39L211.85-40.46L211.85-40.46Q214.74-40.39 213.97-37.61L213.97-37.61L204.48-6.02L204.48-6.02Q206.95-7.83 209.38-11.23L209.38-11.23L209.38-11.23Q210.27-12.50 211.35-11.77L211.35-11.77L213.28-10.49L213.28-10.49Q214.51-9.64 213.66-8.52L213.66-8.52L213.66-8.52Q210.42-4.74 207.70-2.64L207.70-2.64L207.70-2.64Q204.98-0.54 201.24 0.31L201.24 0.31L201.24 0.31Q200.16 0.46 199.81-0.54L199.81-0.54L198.35-4.90L198.35-4.90Q196.11-1.97 194.53-0.87L194.53-0.87L194.53-0.87Q192.95 0.23 192.10 0.23L192.10 0.23L191.95 0.23L191.95 0.23Q191.29 0.23 190.00-0.68L190.00-0.68L190.00-0.68Q188.71-1.58 187.43-3.05L187.43-3.05L187.43-3.05Q186.16-4.51 185.60-6.25L185.60-6.25L185.60-6.25Q185.04-7.98 185.68-12.56L185.68-12.56L185.68-12.56Q186.31-17.13 189.28-25.34L189.28-25.34L189.28-25.34Q192.25-33.56 195.38-36.80L195.38-36.80L195.38-36.80Q198.50-40.04 203.21-39.96L203.21-39.96L203.21-39.96Q205.83-39.96 208.22-38.54ZM207.03-34.14L207.03-34.14L207.03-34.14Q202.82-36.49 200.18-34.23L200.18-34.23L200.18-34.23Q197.54-31.98 195.01-25.03L195.01-25.03L195.01-25.03Q192.49-18.09 191.73-14.14L191.73-14.14L191.73-14.14Q190.98-10.18 191.10-8.76L191.10-8.76L191.10-8.76Q191.21-7.33 192.49-6.67L192.49-6.67L192.49-6.67Q193.76-6.02 196.71-9.26L196.71-9.26L196.71-9.26Q199.66-12.50 201.88-18.13L201.88-18.13L201.88-18.13Q204.10-23.76 207.03-34.14ZM234.15-58.13L234.15-58.13L219.76-1.74L219.76-1.74Q219.29 0 217.37 0L217.37 0L216.05 0L216.05 0Q213.12 0 213.74-2.55L213.74-2.55L228.21-58.21L228.21-58.21Q228.67-59.94 230.56-59.94L230.56-59.94L232.37-59.94L232.37-59.94Q234.61-59.94 234.15-58.13ZM244.56-40.62L244.56-40.62L245.76-40.62L245.76-40.62Q248.46-40.62 250.73-38.55L250.73-38.55L250.73-38.55Q253.01-36.49 254.44-33.48L254.44-33.48L254.44-33.48Q255.25-31.82 253.90-30.98L253.90-30.98L251.50-29.63L251.50-29.63Q249.85-28.43 249.15-30.01L249.15-30.01L249.15-30.01Q249.07-30.17 248.51-31.48L248.51-31.48L248.51-31.48Q247.96-32.79 247.61-33.35L247.61-33.35L247.61-33.35Q247.26-33.91 246.39-34.60L246.39-34.60L246.39-34.60Q245.52-35.30 244.41-35.49L244.41-35.49L244.41-35.49Q242.44-35.06 240.70-32.87L240.70-32.87L240.70-32.87Q238.97-30.67 238.97-26.62L238.97-26.62L238.97-26.62Q238.97-24.88 239.80-24.21L239.80-24.21L239.80-24.21Q240.63-23.53 242.75-23.07L242.75-23.07L244.95-22.60L244.95-22.60Q249.77-21.56 249.77-14.62L249.77-14.62L249.77-14.62Q249.77-10.49 246.68-5.13L246.68-5.13L246.68-5.13Q245.22-2.62 242.67-0.87L242.67-0.87L242.67-0.87Q240.12 0.89 237.15 0.89L237.15 0.89L236.58 0.89L236.58 0.89Q233.57 0.89 231.21-1.22L231.21-1.22L231.21-1.22Q228.86-3.32 227.90-5.50L227.90-5.50L227.90-5.50Q226.93-7.68 227.90-8.76L227.90-8.76L229.63-10.18L229.63-10.18Q230.44-10.99 231.39-10.92L231.39-10.92L231.39-10.92Q232.33-10.84 232.68-9.53L232.68-9.53L232.68-9.53Q233.03-8.22 234.61-6.36L234.61-6.36L234.61-6.36Q236.19-4.51 237.54-4.44L237.54-4.44L237.54-4.44Q239.89-4.82 241.63-7.23L241.63-7.23L241.63-7.23Q243.36-9.64 243.36-12.77L243.36-12.77L243.36-12.77Q243.36-15.89 242.79-16.76L242.79-16.76L242.79-16.76Q242.21-17.63 240.12-18.09L240.12-18.09L238.39-18.48L238.39-18.48Q235.34-19.21 234.07-21.02L234.07-21.02L234.07-21.02Q232.80-22.84 232.80-25.92L232.80-25.92L232.80-25.92Q232.80-31.05 236.46-35.84L236.46-35.84L236.46-35.84Q240.12-40.62 244.56-40.62Z" fill="#00d8ff"></path></g></g><style>text {
  font-size: 64px;
  font-family: Arial Black;
  dominant-baseline: central;
  text-anchor: middle;
}</style></svg>